<svg xmlns="http://www.w3.org/2000/svg" viewBox="0 0 352 352" fill="#1A4639" aria-hidden="true">
<path d="M178.853 84.8013H173.146V311.574H178.853V84.8013Z" fill="#1A4639"></path>
<mask id="tree-mask" style="mask-type:luminance" maskUnits="userSpaceOnUse" x="0" y="0" width="352" height="352">
<path d="M176 352C273.202 352 352 273.202 352 176C352 78.7979 273.202 0 176 0C78.7979 0 0 78.7979 0 176C0 273.202 78.7979 352 176 352Z" fill="white"></path>
</mask>
<g mask="url(#tree-mask)">
<path d="M175.972 221.899H2.06055V227.605H175.972V221.899Z" fill="#1A4639"></path>
<path d="M79.1394 226.758C67.3372 214.805 53.8066 204.926 38.9176 197.404C25.3724 190.582 10.7512 185.787 -4.52734 183.148L-3.55844 177.524C12.28 180.26 27.4368 185.231 41.4884 192.311C56.9324 200.116 70.9694 210.355 83.2049 222.751L79.1442 226.758H79.1394Z" fill="#1A4639"></path>
<path d="M174.035 226.821L128.18 183.279L22.6914 83.058L26.6206 78.9243L132.11 179.14L177.965 222.683L174.035 226.821Z" fill="#1A4639"></path>
<path d="M87.0277 179.438C86.8183 179.438 86.609 179.438 86.3996 179.438C74.4076 179.345 61.7096 176.555 48.661 171.146C32.4963 164.446 15.7231 153.676 -1.19141 139.138L2.52841 134.81C22.8949 152.313 53.9047 173.279 85.9857 173.726C95.9329 173.873 103.47 171.949 108.047 170.318C113.008 168.551 115.657 166.72 115.686 166.701L118.977 171.365C118.505 171.696 107.341 179.438 87.0374 179.438H87.0277Z" fill="#1A4639"></path>
<path d="M55.4788 133.49C44.0369 133.49 27.8041 128.631 7.82227 109.832L11.732 105.674C45.7946 137.716 66.6967 126.342 70.5382 123.733L70.5869 123.699C70.9423 123.47 71.1371 123.324 71.1371 123.319L74.6281 127.832C74.5696 127.876 74.2532 128.12 73.7127 128.47C71.6142 129.887 65.3139 133.48 55.4739 133.48L55.4788 133.49Z" fill="#1A4639"></path>
<path d="M173.345 223.53L140.967 137.458L132.237 114.297L95.4629 16.6129L100.804 14.6021L137.574 112.286L146.304 135.447L178.687 221.524L173.345 223.53Z" fill="#1A4639"></path>
<path d="M130.702 116.391C117.098 116.391 76.8714 110.835 48.3301 49.502L53.5008 47.0968C66.1794 74.3381 82.5485 93.2391 102.155 103.264C117.488 111.103 130.015 110.85 133.487 110.587C134.051 110.548 134.334 110.494 134.334 110.494L135.497 116.079C135.356 116.108 134.83 116.21 133.905 116.279C133.117 116.337 132.036 116.391 130.697 116.391H130.702Z" fill="#1A4639"></path>
<path d="M117.007 76.018C109.382 76.018 87.1171 72.2933 69.3359 32.1105L74.5554 29.8026C82.2531 47.1991 91.5283 59.2642 102.128 65.6521C110.307 70.5843 116.608 70.4236 118.346 70.2532L118.453 70.2435C118.711 70.2289 118.862 70.1996 118.867 70.1996L119.953 75.7989C119.846 75.8183 119.446 75.8914 118.843 75.9303C118.39 75.9741 117.776 76.0082 117.012 76.0082L117.007 76.018Z" fill="#1A4639"></path>
<path d="M349.942 221.899H176.031V227.605H349.942V221.899Z" fill="#1A4639"></path>
<path d="M174.434 99.0571C162.394 91.1354 142.022 68.0083 140.902 2.10812L146.609 2.01074C147.091 30.2745 151.234 53.2215 158.917 70.1993C165.213 84.1097 172.535 90.9748 177.57 94.2856L174.434 99.0522V99.0571Z" fill="#1A4639"></path>
<path d="M177.571 99.0573L174.436 94.2906C179.47 90.9798 186.793 84.1098 193.088 70.1994C200.776 53.2119 204.915 30.2601 205.397 1.97681L211.103 2.07418C209.983 68.0036 189.612 91.1356 177.571 99.0573Z" fill="#1A4639"></path>
<path d="M178.855 -2.02039H173.148V224.752H178.855V-2.02039Z" fill="#1A4639"></path>
<path d="M20.1913 270.851L19.8164 265.159C41.7069 263.718 60.749 257.072 76.4122 245.406C84.5383 239.33 91.7102 231.934 97.7281 223.423L102.388 226.714C96.024 235.712 88.4334 243.541 79.8301 249.978C63.2662 262.316 43.2065 269.341 20.1962 270.851H20.1913Z" fill="#1A4639"></path>
<path d="M272.857 226.758L268.797 222.751C281.032 210.355 295.064 200.116 310.508 192.311C324.565 185.231 339.722 180.26 355.555 177.524L356.524 183.148C341.241 185.787 326.624 190.582 313.074 197.404C298.19 204.926 284.655 214.8 272.853 226.758H272.857Z" fill="#1A4639"></path>
<path d="M332.009 270.534C308.931 269.02 288.827 261.989 272.263 249.632C263.777 243.332 256.177 235.517 249.682 226.408L254.327 223.097C260.476 231.719 267.658 239.11 275.672 245.055C291.345 256.741 310.421 263.396 332.384 264.842L332.009 270.534Z" fill="#1A4639"></path>
<path d="M177.962 226.821L174.033 222.683L219.888 179.14L325.377 78.9243L329.306 83.058L223.817 183.279L177.962 226.821Z" fill="#1A4639"></path>
<path d="M264.975 179.438C244.672 179.438 233.507 171.696 233.035 171.365L236.331 166.71C236.331 166.71 238.995 168.551 243.961 170.318C248.538 171.949 256.084 173.868 266.022 173.726C298.103 173.274 329.113 152.313 349.479 134.81L353.199 139.138C336.284 153.676 319.511 164.446 303.347 171.146C290.298 176.555 277.6 179.345 265.608 179.438C265.399 179.438 265.189 179.438 264.98 179.438H264.975Z" fill="#1A4639"></path>
<path d="M296.511 133.485C286.675 133.485 280.38 129.896 278.282 128.475C277.736 128.119 277.42 127.881 277.361 127.837L280.852 123.323C280.852 123.323 281.047 123.469 281.402 123.703L281.451 123.737C285.293 126.342 306.2 137.716 340.287 105.649L344.196 109.807C324.195 128.626 307.952 133.49 296.501 133.49L296.511 133.485Z" fill="#1A4639"></path>
<path d="M178.685 225.755L173.344 223.749L205.697 137.706L214.427 114.535L251.942 14.9182L257.278 16.9291L219.764 116.551L211.034 139.717L178.685 225.755Z" fill="#1A4639"></path>
<path d="M221.231 118.615C219.858 118.615 218.792 118.557 218.071 118.499C217.219 118.44 216.747 118.372 216.693 118.362L217.492 112.714C217.492 112.714 217.838 112.763 218.5 112.807C222.025 113.084 234.664 113.367 250.211 105.304C270.042 95.0257 286.537 75.6671 299.231 47.7684L304.426 50.1298C291.192 79.2213 273.834 99.4905 252.84 110.368C239.08 117.496 227.249 118.606 221.236 118.606L221.231 118.615Z" fill="#1A4639"></path>
<path d="M234.873 78.2625C234.172 78.2625 233.602 78.2333 233.178 78.1943C232.57 78.1554 232.171 78.0823 232.059 78.0629L233.178 72.4685L232.619 75.2681L233.144 72.4637C233.144 72.4637 233.3 72.488 233.558 72.5075H233.641C235.433 72.673 241.923 72.7948 250.215 67.6873C261.038 61.0218 270.464 48.465 278.24 30.3528L283.484 32.6022C265.493 74.5232 242.497 78.2674 234.878 78.2674L234.873 78.2625Z" fill="#1A4639"></path>
</g>

</svg>